<mxfile host="app.diagrams.net" modified="2023-06-06T21:32:58.000Z" agent="Mozilla/5.0 (Macintosh; Intel Mac OS X 10.15; rv:109.0) Gecko/20100101 Firefox/113.0" etag="gFlyeQ-EdYEuCSyrO17k" version="21.3.7" type="device">
  <diagram name="Page-1" id="B7OkpGDeFlaHiEhKn-_2">
    <mxGraphModel dx="2074" dy="1074" grid="1" gridSize="10" guides="1" tooltips="1" connect="1" arrows="1" fold="1" page="1" pageScale="1" pageWidth="1100" pageHeight="850" math="0" shadow="0">
      <root>
        <mxCell id="0" />
        <mxCell id="1" parent="0" />
        <mxCell id="GPBjcmxgOEZ8USBLpxIF-14" style="edgeStyle=orthogonalEdgeStyle;curved=1;rounded=0;orthogonalLoop=1;jettySize=auto;html=1;exitX=0.55;exitY=0.95;exitDx=0;exitDy=0;exitPerimeter=0;entryX=0;entryY=0.5;entryDx=0;entryDy=0;" edge="1" parent="1" source="GPBjcmxgOEZ8USBLpxIF-5" target="GPBjcmxgOEZ8USBLpxIF-6">
          <mxGeometry relative="1" as="geometry">
            <Array as="points">
              <mxPoint x="200" y="186" />
              <mxPoint x="200" y="315" />
            </Array>
          </mxGeometry>
        </mxCell>
        <mxCell id="GPBjcmxgOEZ8USBLpxIF-5" value="Media Content" style="ellipse;shape=cloud;whiteSpace=wrap;html=1;" vertex="1" parent="1">
          <mxGeometry x="135" y="110" width="120" height="80" as="geometry" />
        </mxCell>
        <mxCell id="GPBjcmxgOEZ8USBLpxIF-12" style="edgeStyle=none;rounded=0;orthogonalLoop=1;jettySize=auto;html=1;exitX=1;exitY=0.5;exitDx=0;exitDy=0;entryX=0;entryY=0.5;entryDx=0;entryDy=0;" edge="1" parent="1" source="GPBjcmxgOEZ8USBLpxIF-6" target="GPBjcmxgOEZ8USBLpxIF-9">
          <mxGeometry relative="1" as="geometry" />
        </mxCell>
        <mxCell id="GPBjcmxgOEZ8USBLpxIF-6" value="&lt;div&gt;cron job&lt;/div&gt;" style="image;aspect=fixed;perimeter=ellipsePerimeter;html=1;align=center;shadow=0;dashed=0;spacingTop=3;image=img/lib/active_directory/generic_server.svg;" vertex="1" parent="1">
          <mxGeometry x="340" y="290" width="28.000000000000004" height="50" as="geometry" />
        </mxCell>
        <mxCell id="GPBjcmxgOEZ8USBLpxIF-8" value="MySQL Instance" style="shape=cylinder3;whiteSpace=wrap;html=1;boundedLbl=1;backgroundOutline=1;size=15;" vertex="1" parent="1">
          <mxGeometry x="650" y="275" width="60" height="80" as="geometry" />
        </mxCell>
        <mxCell id="GPBjcmxgOEZ8USBLpxIF-13" style="edgeStyle=none;rounded=0;orthogonalLoop=1;jettySize=auto;html=1;exitX=1;exitY=0.5;exitDx=0;exitDy=0;" edge="1" parent="1" source="GPBjcmxgOEZ8USBLpxIF-9" target="GPBjcmxgOEZ8USBLpxIF-8">
          <mxGeometry relative="1" as="geometry" />
        </mxCell>
        <mxCell id="GPBjcmxgOEZ8USBLpxIF-9" value="Beautiful Soup" style="rounded=0;whiteSpace=wrap;html=1;" vertex="1" parent="1">
          <mxGeometry x="460" y="285" width="120" height="60" as="geometry" />
        </mxCell>
        <mxCell id="GPBjcmxgOEZ8USBLpxIF-11" style="edgeStyle=none;rounded=0;orthogonalLoop=1;jettySize=auto;html=1;exitX=0.75;exitY=1;exitDx=0;exitDy=0;" edge="1" parent="1" source="GPBjcmxgOEZ8USBLpxIF-9" target="GPBjcmxgOEZ8USBLpxIF-9">
          <mxGeometry relative="1" as="geometry" />
        </mxCell>
      </root>
    </mxGraphModel>
  </diagram>
</mxfile>
